<svg width="59" height="14" viewBox="0 0 59 14" fill="none" xmlns="http://www.w3.org/2000/svg">
<path d="M1.42578 0.203125H3.79883L6.875 9.35254L9.94238 0.203125H12.3154L7.83301 13H5.9082L1.42578 0.203125ZM0.0546875 0.203125H2.47168L2.91992 9.68652V13H0.0546875V0.203125ZM11.2695 0.203125H13.6953V13H10.8213V9.68652L11.2695 0.203125ZM17.1934 0.203125H19.5664L22.6426 9.35254L25.71 0.203125H28.083L23.6006 13H21.6758L17.1934 0.203125ZM15.8223 0.203125H18.2393L18.6875 9.68652V13H15.8223V0.203125ZM27.0371 0.203125H29.4629V13H26.5889V9.68652L27.0371 0.203125ZM37.0654 2.6377L33.7607 13H30.7021L35.4395 0.203125H37.373L37.0654 2.6377ZM39.8076 13L36.4941 2.6377L36.1514 0.203125H38.1113L42.8662 13H39.8076ZM39.667 8.23633V10.4512H32.9961V8.23633H39.667ZM50.5654 9.625C50.5654 9.4082 50.5332 9.21484 50.4688 9.04492C50.4043 8.86914 50.2871 8.70801 50.1172 8.56152C49.9473 8.41504 49.707 8.26855 49.3965 8.12207C49.0859 7.96973 48.6787 7.81445 48.1748 7.65625C47.6006 7.46875 47.0527 7.25781 46.5312 7.02344C46.0156 6.7832 45.5557 6.50488 45.1514 6.18848C44.7471 5.87207 44.4277 5.50293 44.1934 5.08105C43.9648 4.65918 43.8506 4.16699 43.8506 3.60449C43.8506 3.05957 43.9707 2.56738 44.2109 2.12793C44.4512 1.68848 44.7881 1.31348 45.2217 1.00293C45.6553 0.686523 46.165 0.446289 46.751 0.282227C47.3369 0.112305 47.9814 0.0273438 48.6846 0.0273438C49.6221 0.0273438 50.4453 0.194336 51.1543 0.52832C51.8691 0.856445 52.4258 1.31934 52.8242 1.91699C53.2227 2.50879 53.4219 3.19727 53.4219 3.98242H50.5742C50.5742 3.63672 50.501 3.33203 50.3545 3.06836C50.2139 2.79883 49.9971 2.58789 49.7041 2.43555C49.417 2.2832 49.0566 2.20703 48.623 2.20703C48.2012 2.20703 47.8467 2.27148 47.5596 2.40039C47.2783 2.52344 47.0645 2.69336 46.918 2.91016C46.7773 3.12695 46.707 3.36426 46.707 3.62207C46.707 3.82715 46.7598 4.01465 46.8652 4.18457C46.9766 4.34863 47.1348 4.50391 47.3398 4.65039C47.5508 4.79102 47.8086 4.92578 48.1133 5.05469C48.418 5.18359 48.7666 5.30664 49.1592 5.42383C49.8447 5.64062 50.4512 5.88086 50.9785 6.14453C51.5117 6.4082 51.96 6.70703 52.3232 7.04102C52.6865 7.375 52.959 7.75293 53.1406 8.1748C53.3281 8.59668 53.4219 9.07422 53.4219 9.60742C53.4219 10.1758 53.3105 10.6797 53.0879 11.1191C52.8711 11.5586 52.5547 11.9336 52.1387 12.2441C51.7285 12.5488 51.2363 12.7803 50.6621 12.9385C50.0879 13.0967 49.4463 13.1758 48.7373 13.1758C48.0928 13.1758 47.457 13.0938 46.8301 12.9297C46.2031 12.7598 45.6348 12.502 45.125 12.1562C44.6211 11.8105 44.2168 11.3711 43.9121 10.8379C43.6133 10.2988 43.4639 9.66016 43.4639 8.92188H46.3291C46.3291 9.30859 46.3848 9.63672 46.4961 9.90625C46.6074 10.1699 46.7656 10.3838 46.9707 10.5479C47.1816 10.7119 47.4365 10.8291 47.7354 10.8994C48.0342 10.9697 48.3682 11.0049 48.7373 11.0049C49.165 11.0049 49.5107 10.9463 49.7744 10.8291C50.0439 10.7061 50.2432 10.5391 50.3721 10.3281C50.501 10.1172 50.5654 9.88281 50.5654 9.625ZM58.1592 0.203125V13H55.3027V0.203125H58.1592Z" fill="white"/>
</svg>
